<svg xmlns="http://www.w3.org/2000/svg" width="1200" height="400" viewBox="0 0 1200 400">
  <!-- Sky gradient -->
  <defs>
    <linearGradient id="skyGradient" x1="0%" y1="0%" x2="0%" y2="100%">
      <stop offset="0%" stop-color="#082f49" />
      <stop offset="100%" stop-color="#0c4a6e" />
    </linearGradient>
  </defs>
  
  <!-- Background -->
  <rect width="1200" height="400" fill="url(#skyGradient)" />
  
  <!-- Sun -->
  <circle cx="900" cy="100" r="60" fill="#fbbf24" opacity="0.7" />
  <circle cx="900" cy="100" r="40" fill="#fcd34d" opacity="0.8" />
  
  <!-- Distant waves -->
  <path 
    d="M0,200 C100,180 200,220 300,200 C400,180 500,220 600,200 C700,180 800,220 900,200 C1000,180 1100,220 1200,200 L1200,400 L0,400 Z" 
    fill="#0284c7" 
    opacity="0.4"
  />
  
  <!-- Middle waves -->
  <path 
    d="M0,250 C100,230 200,270 300,250 C400,230 500,270 600,250 C700,230 800,270 900,250 C1000,230 1100,270 1200,250 L1200,400 L0,400 Z" 
    fill="#0369a1" 
    opacity="0.6"
  />
  
  <!-- Front waves -->
  <path 
    d="M0,300 C100,280 200,320 300,300 C400,280 500,320 600,300 C700,280 800,320 900,300 C1000,280 1100,320 1200,300 L1200,400 L0,400 Z" 
    fill="#075985" 
    opacity="0.8"
  />
  
  <!-- Surface waves -->
  <path 
    d="M0,350 C100,330 200,370 300,350 C400,330 500,370 600,350 C700,330 800,370 900,350 C1000,330 1100,370 1200,350 L1200,400 L0,400 Z" 
    fill="#0c4a6e" 
  />
  
  <!-- Bubbles -->
  <circle cx="200" cy="280" r="5" fill="white" opacity="0.4" />
  <circle cx="500" cy="310" r="3" fill="white" opacity="0.3" />
  <circle cx="800" cy="290" r="4" fill="white" opacity="0.5" />
  <circle cx="1100" cy="320" r="6" fill="white" opacity="0.2" />
  <circle cx="350" cy="270" r="3" fill="white" opacity="0.3" />
  <circle cx="650" cy="300" r="5" fill="white" opacity="0.4" />
  <circle cx="950" cy="280" r="4" fill="white" opacity="0.2" />
</svg> 