<svg width="100" height="100" viewBox="0 0 100 100" fill="none" xmlns="http://www.w3.org/2000/svg">
  <rect width="100" height="100" rx="50" fill="#0c4a6e" />
  <path 
    d="M10,50 C20,40 30,60 40,50 C50,40 60,60 70,50 C80,40 90,60 100,50 L100,100 L0,100 L0,50 Z" 
    fill="#0369a1" 
  />
  <path 
    d="M0,65 C10,55 20,75 30,65 C40,55 50,75 60,65 C70,55 80,75 90,65 L100,65 L100,100 L0,100 Z" 
    fill="#0284c7" 
  />
  <path 
    d="M0,80 C10,70 20,90 30,80 C40,70 50,90 60,80 C70,70 80,90 90,80 L100,80 L100,100 L0,100 Z" 
    fill="#38bdf8" 
  />
</svg> 